<svg width="780" height="981" viewBox="0 0 780 981" fill="none" xmlns="http://www.w3.org/2000/svg">
<path fill-rule="evenodd" clip-rule="evenodd" d="M59.5867 980.409L33.9775 969.619L63.7731 949.104L1.26021 922.766C-1.268 921.701 0.12918 918.443 4.36506 915.526L35.1715 894.315C39.4073 891.398 44.9416 889.884 47.4698 890.949L109.983 917.287L134.628 900.317L72.218 874.023C69.633 872.934 70.9837 869.657 75.2196 866.74L106.026 845.528C110.262 842.612 115.843 841.117 118.428 842.206L180.837 868.5L201.17 854.501L143.117 830.042C137.702 827.761 136.738 823.508 140.973 820.591L171.78 799.379C176.016 796.463 183.912 795.943 189.327 798.225L247.379 822.683L415.391 707L441 717.79L272.988 833.473L440.389 904.002L456.667 936.503L394.18 935.819L226.779 865.29L206.447 879.29L238.279 892.701L233.974 916.531L192.069 924.519L160.237 911.107L135.592 928.076L164.687 940.335L159.969 963.99L118.477 972.152L89.3823 959.894L59.5867 980.409Z" fill="#2B2B2B" fill-opacity="0.42"/>
<g clip-path="url(#clip0_389_3830)">
<path d="M187.25 335.75C176.469 335.75 171.078 328.094 167.172 322.469C163.188 316.766 161.156 314.5 157.25 314.5C153.344 314.5 151.391 316.844 147.328 322.469C143.344 328.094 137.953 335.75 127.25 335.75C116.469 335.75 111.078 328.094 107.172 322.469C103.188 316.766 101.156 314.5 97.25 314.5C93.3438 314.5 91.3906 316.844 87.3281 322.469C83.3438 328.094 77.9531 335.75 67.25 335.75C56.5469 335.75 51.0781 328.094 47.1719 322.469C43.1875 316.766 41.1562 314.5 37.25 314.5C33.8125 314.5 31 311.688 31 308.25C31 304.812 33.8125 302 37.25 302C48.0312 302 53.4219 309.656 57.3281 315.281C61.3125 320.984 63.3438 323.25 67.25 323.25C71.1562 323.25 73.1094 320.906 77.1719 315.281C81.1562 309.656 86.5469 302 97.25 302C107.953 302 113.422 309.656 117.328 315.281C121.312 320.984 123.344 323.25 127.25 323.25C131.156 323.25 133.109 320.906 137.172 315.281C141.156 309.656 146.547 302 157.25 302C167.953 302 173.422 309.656 177.328 315.281C181.312 320.984 183.344 323.25 187.25 323.25C190.688 323.25 193.5 326.062 193.5 329.5C193.5 332.937 190.688 335.75 187.25 335.75ZM187.25 374.813C176.469 374.813 171.078 367.156 167.172 361.531C163.188 355.828 161.156 353.562 157.25 353.562C153.344 353.562 151.391 355.906 147.328 361.531C143.344 367.156 137.953 374.813 127.25 374.813C116.469 374.813 111.078 367.156 107.172 361.531C103.188 355.828 101.156 353.562 97.25 353.562C93.3438 353.562 91.3906 355.906 87.3281 361.531C83.3438 367.156 77.9531 374.813 67.25 374.813C56.5469 374.813 51.0781 367.156 47.1719 361.531C43.1875 355.828 41.1562 353.562 37.25 353.562C33.8125 353.562 31 350.75 31 347.312C31 343.875 33.8125 341.062 37.25 341.062C48.0312 341.062 53.4219 348.719 57.3281 354.344C61.3125 360.047 63.3438 362.313 67.25 362.313C71.1562 362.313 73.1094 359.969 77.1719 354.344C81.1562 348.719 86.5469 341.062 97.25 341.062C107.953 341.062 113.422 348.719 117.328 354.344C121.312 360.047 123.344 362.313 127.25 362.313C131.156 362.313 133.109 359.969 137.172 354.344C141.156 348.719 146.547 341.062 157.25 341.062C167.953 341.062 173.422 348.719 177.328 354.344C181.312 360.047 183.344 362.313 187.25 362.313C190.688 362.313 193.5 365.125 193.5 368.563C193.5 372 190.688 374.813 187.25 374.813ZM724.75 686.531C713.969 686.531 708.578 678.875 704.672 673.25C700.688 667.547 698.656 665.281 694.75 665.281C690.844 665.281 688.891 667.625 684.828 673.25C680.844 678.875 675.453 686.531 664.75 686.531C653.969 686.531 648.578 678.875 644.672 673.25C640.688 667.547 638.656 665.281 634.75 665.281C630.844 665.281 628.891 667.625 624.828 673.25C620.844 678.875 615.453 686.531 604.75 686.531C594.047 686.531 588.578 678.875 584.672 673.25C580.688 667.547 578.656 665.281 574.75 665.281C571.312 665.281 568.5 662.469 568.5 659.031C568.5 655.594 571.312 652.781 574.75 652.781C585.531 652.781 590.922 660.438 594.828 666.062C598.812 671.766 600.844 674.031 604.75 674.031C608.656 674.031 610.609 671.688 614.672 666.062C618.656 660.438 624.047 652.781 634.75 652.781C645.453 652.781 650.922 660.438 654.828 666.062C658.812 671.766 660.844 674.031 664.75 674.031C668.656 674.031 670.609 671.688 674.672 666.062C678.656 660.438 684.047 652.781 694.75 652.781C705.453 652.781 710.922 660.438 714.828 666.062C718.812 671.766 720.844 674.031 724.75 674.031C728.188 674.031 731 676.844 731 680.281C731 683.719 728.188 686.531 724.75 686.531ZM724.75 725.594C713.969 725.594 708.578 717.938 704.672 712.312C700.688 706.609 698.656 704.344 694.75 704.344C690.844 704.344 688.891 706.688 684.828 712.312C680.844 717.938 675.453 725.594 664.75 725.594C653.969 725.594 648.578 717.938 644.672 712.312C640.688 706.609 638.656 704.344 634.75 704.344C630.844 704.344 628.891 706.688 624.828 712.312C620.844 717.938 615.453 725.594 604.75 725.594C594.047 725.594 588.578 717.938 584.672 712.312C580.688 706.609 578.656 704.344 574.75 704.344C571.312 704.344 568.5 701.531 568.5 698.094C568.5 694.656 571.312 691.844 574.75 691.844C585.531 691.844 590.922 699.5 594.828 705.125C598.812 710.828 600.844 713.094 604.75 713.094C608.656 713.094 610.609 710.75 614.672 705.125C618.656 699.5 624.047 691.844 634.75 691.844C645.453 691.844 650.922 699.5 654.828 705.125C658.812 710.828 660.844 713.094 664.75 713.094C668.656 713.094 670.609 710.75 674.672 705.125C678.656 699.5 684.047 691.844 694.75 691.844C705.453 691.844 710.922 699.5 714.828 705.125C718.812 710.828 720.844 713.094 724.75 713.094C728.188 713.094 731 715.906 731 719.344C731 722.781 728.188 725.594 724.75 725.594Z" fill="white"/>
<path d="M319.91 456.09C270.025 406.206 242 338.548 242 268C242 197.452 270.025 129.794 319.91 79.9096C369.794 30.0249 437.452 2 508 2C578.548 2 646.206 30.0249 696.091 79.9096C745.975 129.794 774 197.452 774 268C774 338.548 745.975 406.206 696.091 456.09C646.206 505.975 578.548 534 508 534C437.452 534 369.794 505.975 319.91 456.09Z" fill="#FEFFC7" stroke="black" stroke-width="4"/>
<path d="M404.703 103.141H439.203V717.328H404.703V103.141Z" fill="white" stroke="black" stroke-width="3"/>
<path d="M647.75 374.5L695.75 410.5L647.75 446.5H329.5C323.453 446.5 318.5 441.547 318.5 435.5V385.5C318.5 379.453 323.453 374.5 329.5 374.5H647.75Z" fill="#6BB06C" stroke="black" stroke-width="3"/>
<path d="M498.222 302.5L475.308 338.5H323.967C323.241 338.5 322.128 337.821 321.107 335.682C320.14 333.658 319.5 330.763 319.5 327.5V277.5C319.5 274.237 320.14 271.342 321.107 269.318C322.128 267.179 323.241 266.5 323.967 266.5H475.308L498.222 302.5Z" fill="#6BB06C" stroke="black" stroke-width="3"/>
<path d="M494.233 187.5L471.823 223.5H323.836C323.163 223.5 322.079 222.847 321.074 220.694C320.127 218.666 319.5 215.767 319.5 212.5V162.5C319.5 159.233 320.127 156.334 321.074 154.306C322.079 152.153 323.163 151.5 323.836 151.5H471.823L494.233 187.5Z" fill="#6BB06C" stroke="black" stroke-width="3"/>
<path d="M248.023 676.024C236.583 664.584 230.156 649.069 230.156 632.891C230.156 616.712 236.583 601.197 248.023 589.757C259.462 578.317 274.978 571.891 291.156 571.891C307.334 571.891 322.85 578.317 334.29 589.757C345.729 601.197 352.156 616.712 352.156 632.891C352.156 649.069 345.729 664.584 334.29 676.024C322.85 687.464 307.334 693.891 291.156 693.891C274.978 693.891 259.462 687.464 248.023 676.024Z" fill="#6B9C6C" stroke="black" stroke-width="3"/>
<path d="M132.5 718.109V674.297C132.5 633.016 166.282 599.234 207.563 599.234C248.843 599.234 282.625 633.016 282.625 674.297V718.109H132.5Z" fill="#6B9C6C" stroke="black" stroke-width="3"/>
<path d="M256.719 718.109V693.438C256.719 659.657 284.328 632.047 318.109 632.047C351.89 632.047 379.5 659.657 379.5 693.438V718.109H256.719Z" fill="#507851" stroke="black" stroke-width="3"/>
<path d="M223.766 609.234C217.437 607.359 210.719 606.344 203.766 606.344C167.828 606.344 138.141 633.375 134 668.219C151.734 667.672 171.031 664 181.578 659.078C200.563 650.25 189 629.391 215.797 626.109C224.234 625.094 232.359 623.609 240.797 616.891C239.078 615.797 237.281 614.781 235.406 613.844C231.656 611.969 227.75 610.406 223.766 609.234ZM287.359 579C270.25 579 254.859 586.734 244.547 598.844C243.453 600.172 242.359 601.5 241.344 602.906C245.172 604.859 248.766 607.047 252.203 609.547C252.672 609.391 253.219 609.156 253.688 609C260.563 606.5 265.406 601.813 270.641 599C279.469 594.234 292.125 600.016 306.344 600.016C312.203 600.016 318.297 598.219 324.781 593.219C314.478 584.042 301.157 578.98 287.359 579Z" fill="white"/>
<path d="M376.096 177.072C375.712 176.624 375.2 176.192 374.56 175.776C373.92 175.36 373.2 174.992 372.4 174.672C371.6 174.32 370.72 174.048 369.76 173.856C368.832 173.632 367.856 173.52 366.832 173.52C364.208 173.52 362.272 174.016 361.024 175.008C359.776 176 359.152 177.36 359.152 179.088C359.152 180.304 359.472 181.264 360.112 181.968C360.752 182.672 361.728 183.248 363.04 183.696C364.384 184.144 366.08 184.608 368.128 185.088C370.496 185.6 372.544 186.224 374.272 186.96C376 187.696 377.328 188.688 378.256 189.936C379.184 191.152 379.648 192.784 379.648 194.832C379.648 196.464 379.328 197.888 378.688 199.104C378.08 200.288 377.216 201.28 376.096 202.08C374.976 202.848 373.664 203.424 372.16 203.808C370.656 204.16 369.024 204.336 367.264 204.336C365.536 204.336 363.84 204.16 362.176 203.808C360.544 203.424 358.992 202.88 357.52 202.176C356.048 201.472 354.672 200.592 353.392 199.536L355.456 195.888C355.968 196.432 356.624 196.976 357.424 197.52C358.256 198.032 359.184 198.512 360.208 198.96C361.264 199.408 362.4 199.776 363.616 200.064C364.832 200.32 366.08 200.448 367.36 200.448C369.792 200.448 371.68 200.016 373.024 199.152C374.368 198.256 375.04 196.96 375.04 195.264C375.04 193.984 374.656 192.96 373.888 192.192C373.152 191.424 372.048 190.784 370.576 190.272C369.104 189.76 367.312 189.248 365.2 188.736C362.896 188.16 360.96 187.536 359.392 186.864C357.824 186.16 356.64 185.248 355.84 184.128C355.072 183.008 354.688 181.552 354.688 179.76C354.688 177.584 355.216 175.744 356.272 174.24C357.328 172.736 358.784 171.6 360.64 170.832C362.496 170.064 364.592 169.68 366.928 169.68C368.464 169.68 369.888 169.84 371.2 170.16C372.544 170.48 373.792 170.928 374.944 171.504C376.096 172.08 377.152 172.768 378.112 173.568L376.096 177.072ZM397.149 202.752C396.797 202.912 396.317 203.12 395.709 203.376C395.101 203.632 394.397 203.856 393.597 204.048C392.797 204.24 391.949 204.336 391.053 204.336C390.029 204.336 389.085 204.16 388.221 203.808C387.357 203.424 386.669 202.848 386.157 202.08C385.645 201.28 385.389 200.288 385.389 199.104V182.256H381.981V178.944H385.389V170.592H389.613V178.944H395.229V182.256H389.613V197.808C389.677 198.704 389.981 199.376 390.525 199.824C391.069 200.24 391.709 200.448 392.445 200.448C393.277 200.448 394.045 200.304 394.749 200.016C395.453 199.728 395.917 199.52 396.141 199.392L397.149 202.752ZM401.064 204V178.944H405.288V204H401.064ZM401.064 174.24V168.96H405.288V174.24H401.064ZM412.223 168.96H416.447V197.52C416.447 198.896 416.639 199.744 417.023 200.064C417.407 200.384 417.871 200.544 418.415 200.544C419.087 200.544 419.727 200.48 420.335 200.352C420.943 200.192 421.455 200.032 421.871 199.872L422.543 203.328C421.839 203.616 421.007 203.856 420.047 204.048C419.087 204.24 418.239 204.336 417.503 204.336C415.871 204.336 414.575 203.872 413.615 202.944C412.687 202.016 412.223 200.72 412.223 199.056V168.96ZM425.957 168.96H430.181V197.52C430.181 198.896 430.373 199.744 430.757 200.064C431.141 200.384 431.605 200.544 432.149 200.544C432.821 200.544 433.461 200.48 434.069 200.352C434.677 200.192 435.189 200.032 435.605 199.872L436.277 203.328C435.573 203.616 434.741 203.856 433.781 204.048C432.821 204.24 431.973 204.336 431.237 204.336C429.605 204.336 428.309 203.872 427.349 202.944C426.421 202.016 425.957 200.72 425.957 199.056V168.96Z" fill="white"/>
<path d="M380.488 284.92V319H376.168V303.496H357.4V319H353.08V284.92H357.4V299.656H376.168V284.92H380.488ZM385.784 311.752C385.784 310.152 386.232 308.776 387.128 307.624C388.056 306.44 389.32 305.528 390.92 304.888C392.52 304.248 394.376 303.928 396.488 303.928C397.608 303.928 398.792 304.024 400.04 304.216C401.288 304.376 402.392 304.632 403.352 304.984V303.16C403.352 301.24 402.776 299.736 401.624 298.648C400.472 297.528 398.84 296.968 396.728 296.968C395.352 296.968 394.024 297.224 392.744 297.736C391.496 298.216 390.168 298.92 388.76 299.848L387.224 296.872C388.856 295.752 390.488 294.92 392.12 294.376C393.752 293.8 395.448 293.512 397.208 293.512C400.408 293.512 402.936 294.408 404.792 296.2C406.648 297.96 407.576 300.424 407.576 303.592V314.2C407.576 314.712 407.672 315.096 407.864 315.352C408.088 315.576 408.44 315.704 408.92 315.736V319C408.504 319.064 408.136 319.112 407.816 319.144C407.528 319.176 407.288 319.192 407.096 319.192C406.104 319.192 405.352 318.92 404.84 318.376C404.36 317.832 404.088 317.256 404.024 316.648L403.928 315.064C402.84 316.472 401.416 317.56 399.656 318.328C397.896 319.096 396.152 319.48 394.424 319.48C392.76 319.48 391.272 319.144 389.96 318.472C388.648 317.768 387.624 316.84 386.888 315.688C386.152 314.504 385.784 313.192 385.784 311.752ZM402.104 313.528C402.488 313.08 402.792 312.632 403.016 312.184C403.24 311.704 403.352 311.304 403.352 310.984V307.864C402.36 307.48 401.32 307.192 400.232 307C399.144 306.776 398.072 306.664 397.016 306.664C394.872 306.664 393.128 307.096 391.784 307.96C390.472 308.792 389.816 309.944 389.816 311.416C389.816 312.216 390.024 313 390.44 313.768C390.888 314.504 391.528 315.112 392.36 315.592C393.224 316.072 394.28 316.312 395.528 316.312C396.84 316.312 398.088 316.056 399.272 315.544C400.456 315 401.4 314.328 402.104 313.528ZM420.733 319L410.893 293.944H415.309L423.181 314.968L431.053 293.944H435.181L425.341 319H420.733ZM449.652 319.48C447.764 319.48 446.036 319.144 444.468 318.472C442.932 317.768 441.588 316.824 440.436 315.64C439.316 314.424 438.436 313.032 437.796 311.464C437.188 309.896 436.884 308.232 436.884 306.472C436.884 304.104 437.428 301.944 438.516 299.992C439.604 298.04 441.108 296.472 443.028 295.288C444.98 294.104 447.204 293.512 449.7 293.512C452.228 293.512 454.42 294.12 456.276 295.336C458.164 296.52 459.62 298.088 460.644 300.04C461.7 301.96 462.228 304.04 462.228 306.28C462.228 306.6 462.212 306.92 462.18 307.24C462.18 307.528 462.164 307.752 462.132 307.912H441.348C441.476 309.544 441.924 311 442.692 312.28C443.492 313.528 444.516 314.52 445.764 315.256C447.012 315.96 448.356 316.312 449.796 316.312C451.332 316.312 452.772 315.928 454.116 315.16C455.492 314.392 456.436 313.384 456.948 312.136L460.596 313.144C460.052 314.36 459.236 315.448 458.148 316.408C457.092 317.368 455.828 318.12 454.356 318.664C452.916 319.208 451.348 319.48 449.652 319.48ZM441.204 304.984H458.292C458.164 303.352 457.7 301.912 456.9 300.664C456.1 299.416 455.076 298.44 453.828 297.736C452.58 297.032 451.204 296.68 449.7 296.68C448.228 296.68 446.868 297.032 445.62 297.736C444.372 298.44 443.348 299.416 442.548 300.664C441.78 301.912 441.332 303.352 441.204 304.984Z" fill="white"/>
<path d="M349.424 419.689C349.424 418.089 349.872 416.713 350.768 415.561C351.696 414.377 352.96 413.465 354.56 412.826C356.16 412.185 358.016 411.865 360.128 411.865C361.248 411.865 362.432 411.961 363.68 412.153C364.928 412.313 366.032 412.569 366.992 412.921V411.097C366.992 409.177 366.416 407.673 365.264 406.585C364.112 405.465 362.48 404.905 360.368 404.905C358.992 404.905 357.664 405.161 356.384 405.673C355.136 406.153 353.808 406.857 352.4 407.785L350.864 404.809C352.496 403.689 354.128 402.857 355.76 402.313C357.392 401.737 359.088 401.449 360.848 401.449C364.048 401.449 366.576 402.345 368.432 404.137C370.288 405.897 371.216 408.361 371.216 411.529V422.137C371.216 422.649 371.312 423.033 371.504 423.289C371.728 423.513 372.08 423.641 372.56 423.673V426.938C372.144 427.002 371.776 427.05 371.456 427.082C371.168 427.114 370.928 427.13 370.736 427.13C369.744 427.13 368.992 426.858 368.48 426.313C368 425.769 367.728 425.193 367.664 424.585L367.568 423.001C366.48 424.409 365.056 425.497 363.296 426.265C361.536 427.034 359.792 427.418 358.064 427.418C356.4 427.418 354.912 427.082 353.6 426.409C352.288 425.705 351.264 424.777 350.528 423.625C349.792 422.441 349.424 421.129 349.424 419.689ZM365.744 421.465C366.128 421.017 366.432 420.569 366.656 420.121C366.88 419.641 366.992 419.241 366.992 418.921V415.801C366 415.417 364.96 415.129 363.872 414.938C362.784 414.714 361.712 414.602 360.656 414.602C358.512 414.602 356.768 415.033 355.424 415.897C354.112 416.729 353.456 417.881 353.456 419.353C353.456 420.153 353.664 420.937 354.08 421.705C354.528 422.441 355.168 423.049 356 423.529C356.864 424.009 357.92 424.249 359.168 424.249C360.48 424.249 361.728 423.993 362.912 423.481C364.096 422.937 365.04 422.265 365.744 421.465ZM399.711 427.418C398.047 427.418 396.527 427.066 395.151 426.361C393.775 425.657 392.591 424.713 391.599 423.529C390.607 422.313 389.839 420.921 389.295 419.353C388.751 417.785 388.479 416.137 388.479 414.409C388.479 412.649 388.783 410.985 389.391 409.417C389.999 407.849 390.831 406.473 391.887 405.289C392.975 404.105 394.239 403.177 395.679 402.505C397.119 401.801 398.671 401.449 400.335 401.449C402.287 401.449 404.063 401.945 405.663 402.938C407.263 403.897 408.527 405.129 409.455 406.633V401.881H413.199V437.162H408.975V421.993C406.671 425.609 403.583 427.418 399.711 427.418ZM401.151 423.77C402.335 423.77 403.407 423.53 404.367 423.049C405.359 422.569 406.239 421.929 407.007 421.129C407.775 420.297 408.431 419.385 408.975 418.393V411.193C408.847 410.361 408.527 409.593 408.015 408.889C407.503 408.153 406.879 407.497 406.143 406.921C405.407 406.345 404.607 405.897 403.743 405.577C402.911 405.257 402.079 405.097 401.247 405.097C399.999 405.097 398.863 405.369 397.839 405.913C396.815 406.425 395.919 407.129 395.151 408.025C394.415 408.921 393.839 409.929 393.423 411.049C393.007 412.169 392.799 413.321 392.799 414.505C392.799 416.169 393.151 417.705 393.855 419.113C394.591 420.521 395.583 421.657 396.831 422.521C398.079 423.353 399.519 423.77 401.151 423.77ZM419.777 416.905V401.881H424.001V416.089C424.001 418.649 424.449 420.569 425.345 421.849C426.241 423.129 427.569 423.77 429.329 423.77C430.481 423.77 431.585 423.53 432.641 423.049C433.729 422.537 434.705 421.817 435.569 420.889C436.433 419.961 437.105 418.857 437.585 417.577V401.881H441.809V422.137C441.809 422.649 441.905 423.033 442.097 423.289C442.321 423.513 442.673 423.641 443.153 423.673V426.938C442.673 427.002 442.289 427.034 442.001 427.034C441.745 427.066 441.489 427.082 441.233 427.082C440.433 427.082 439.745 426.841 439.169 426.361C438.593 425.849 438.289 425.225 438.257 424.489L438.161 421.561C437.073 423.417 435.601 424.857 433.745 425.881C431.921 426.905 429.921 427.418 427.745 427.418C425.121 427.418 423.137 426.537 421.793 424.777C420.449 422.985 419.777 420.361 419.777 416.905ZM459.934 427.418C458.046 427.418 456.318 427.082 454.75 426.409C453.214 425.705 451.87 424.762 450.718 423.577C449.598 422.361 448.718 420.969 448.078 419.401C447.47 417.833 447.166 416.169 447.166 414.409C447.166 412.041 447.71 409.881 448.798 407.929C449.886 405.977 451.39 404.409 453.31 403.225C455.262 402.041 457.486 401.449 459.982 401.449C462.51 401.449 464.702 402.057 466.558 403.273C468.446 404.457 469.902 406.025 470.926 407.977C471.982 409.897 472.51 411.977 472.51 414.217C472.51 414.537 472.494 414.857 472.462 415.177C472.462 415.465 472.446 415.689 472.414 415.849H451.63C451.758 417.481 452.206 418.937 452.974 420.217C453.774 421.465 454.798 422.457 456.046 423.193C457.294 423.897 458.638 424.249 460.078 424.249C461.614 424.249 463.054 423.865 464.398 423.097C465.774 422.329 466.718 421.321 467.23 420.073L470.878 421.081C470.334 422.297 469.518 423.385 468.43 424.345C467.374 425.305 466.11 426.057 464.638 426.601C463.198 427.146 461.63 427.418 459.934 427.418ZM451.486 412.921H468.574C468.446 411.289 467.982 409.849 467.182 408.601C466.382 407.353 465.358 406.377 464.11 405.673C462.862 404.969 461.486 404.617 459.982 404.617C458.51 404.617 457.15 404.969 455.902 405.673C454.654 406.377 453.63 407.353 452.83 408.601C452.062 409.849 451.614 411.289 451.486 412.921ZM485.797 427.418C483.717 427.418 481.765 427.082 479.941 426.409C478.117 425.705 476.549 424.665 475.237 423.289L476.869 420.313C478.309 421.657 479.749 422.617 481.189 423.193C482.629 423.769 484.101 424.057 485.605 424.057C487.333 424.057 488.741 423.737 489.829 423.097C490.917 422.425 491.461 421.449 491.461 420.169C491.461 419.241 491.173 418.553 490.597 418.105C490.053 417.657 489.269 417.289 488.245 417.001C487.221 416.681 486.005 416.329 484.597 415.945C482.869 415.433 481.413 414.889 480.229 414.313C479.045 413.737 478.149 413.017 477.541 412.153C476.933 411.289 476.629 410.201 476.629 408.889C476.629 407.289 477.045 405.945 477.877 404.857C478.709 403.737 479.845 402.889 481.285 402.313C482.757 401.737 484.421 401.449 486.277 401.449C488.133 401.449 489.813 401.737 491.317 402.313C492.821 402.889 494.117 403.737 495.205 404.857L493.285 407.785C492.293 406.761 491.205 406.009 490.021 405.529C488.837 405.017 487.509 404.761 486.037 404.761C485.173 404.761 484.325 404.873 483.493 405.097C482.661 405.289 481.973 405.657 481.429 406.201C480.885 406.713 480.613 407.449 480.613 408.409C480.613 409.209 480.821 409.849 481.237 410.329C481.685 410.777 482.325 411.161 483.157 411.481C484.021 411.801 485.061 412.153 486.277 412.537C488.165 413.081 489.797 413.625 491.173 414.169C492.581 414.713 493.669 415.417 494.437 416.281C495.205 417.145 495.589 418.345 495.589 419.882C495.589 422.249 494.693 424.105 492.901 425.449C491.109 426.762 488.741 427.418 485.797 427.418ZM513.602 425.689C513.25 425.849 512.77 426.057 512.162 426.313C511.554 426.569 510.85 426.793 510.05 426.986C509.25 427.178 508.402 427.274 507.506 427.274C506.482 427.274 505.538 427.098 504.674 426.745C503.81 426.361 503.122 425.785 502.61 425.017C502.098 424.217 501.842 423.225 501.842 422.041V405.193H498.434V401.881H501.842V393.529H506.066V401.881H511.682V405.193H506.066V420.745C506.13 421.641 506.434 422.313 506.978 422.761C507.522 423.177 508.162 423.385 508.898 423.385C509.73 423.385 510.498 423.241 511.202 422.953C511.906 422.665 512.37 422.457 512.594 422.329L513.602 425.689ZM517.517 426.938V401.881H521.741V426.938H517.517ZM517.517 397.177V391.897H521.741V397.177H517.517ZM539.524 427.418C537.636 427.418 535.924 427.082 534.388 426.409C532.852 425.705 531.524 424.762 530.404 423.577C529.284 422.361 528.42 420.969 527.812 419.401C527.204 417.833 526.9 416.185 526.9 414.457C526.9 412.697 527.204 411.033 527.812 409.465C528.42 407.897 529.284 406.521 530.404 405.337C531.524 404.121 532.852 403.177 534.388 402.505C535.956 401.801 537.668 401.449 539.524 401.449C541.412 401.449 543.124 401.801 544.66 402.505C546.196 403.177 547.524 404.121 548.644 405.337C549.796 406.521 550.676 407.897 551.284 409.465C551.892 411.033 552.196 412.697 552.196 414.457C552.196 416.185 551.892 417.833 551.284 419.401C550.676 420.969 549.812 422.361 548.692 423.577C547.572 424.762 546.228 425.705 544.66 426.409C543.124 427.082 541.412 427.418 539.524 427.418ZM531.22 414.505C531.22 416.233 531.588 417.801 532.324 419.209C533.092 420.617 534.1 421.737 535.348 422.569C536.596 423.369 537.988 423.77 539.524 423.77C541.06 423.77 542.452 423.353 543.7 422.521C544.98 421.689 545.988 420.569 546.724 419.161C547.492 417.721 547.876 416.137 547.876 414.409C547.876 412.681 547.492 411.113 546.724 409.705C545.988 408.297 544.98 407.177 543.7 406.345C542.452 405.513 541.06 405.097 539.524 405.097C537.988 405.097 536.596 405.529 535.348 406.393C534.1 407.225 533.092 408.345 532.324 409.753C531.588 411.161 531.22 412.745 531.22 414.505ZM579.058 426.938H574.834V412.921C574.834 410.265 574.418 408.329 573.586 407.113C572.786 405.865 571.554 405.241 569.89 405.241C568.738 405.241 567.586 405.529 566.434 406.105C565.314 406.681 564.306 407.465 563.41 408.457C562.546 409.417 561.922 410.537 561.538 411.817V426.938H557.314V401.881H561.154V407.257C561.826 406.073 562.69 405.049 563.746 404.185C564.802 403.321 566.002 402.649 567.346 402.169C568.69 401.689 570.098 401.449 571.57 401.449C573.01 401.449 574.21 401.721 575.17 402.266C576.162 402.777 576.93 403.513 577.474 404.473C578.05 405.401 578.45 406.505 578.674 407.785C578.93 409.065 579.058 410.457 579.058 411.961V426.938ZM588.381 416.809C588.381 415.657 588.509 414.601 588.765 413.641C589.053 412.681 589.485 411.817 590.061 411.049C590.669 410.249 591.453 409.545 592.413 408.937C592.989 408.553 593.645 408.153 594.381 407.737C595.149 407.321 595.869 406.841 596.541 406.297C597.245 405.721 597.821 405.049 598.269 404.281C598.717 403.481 598.941 402.537 598.941 401.449C598.941 400.233 598.653 399.225 598.077 398.425C597.533 397.593 596.813 396.969 595.917 396.553C595.021 396.137 594.061 395.929 593.037 395.929C591.981 395.929 590.989 396.137 590.061 396.553C589.133 396.969 588.317 397.529 587.613 398.233C586.941 398.905 586.381 399.657 585.933 400.49L583.101 398.617C583.677 397.305 584.477 396.185 585.501 395.257C586.557 394.329 587.741 393.625 589.053 393.145C590.365 392.665 591.725 392.425 593.133 392.425C594.317 392.425 595.469 392.617 596.589 393.001C597.741 393.353 598.765 393.913 599.661 394.681C600.589 395.449 601.325 396.409 601.869 397.561C602.413 398.713 602.685 400.073 602.685 401.641C602.685 402.857 602.525 403.897 602.205 404.761C601.885 405.625 601.437 406.377 600.861 407.017C600.317 407.657 599.677 408.217 598.941 408.697C598.205 409.177 597.437 409.641 596.637 410.089C595.869 410.505 595.117 410.969 594.381 411.481C593.677 411.993 593.085 412.665 592.605 413.497C592.157 414.297 591.933 415.401 591.933 416.809H588.381ZM588.477 426.938V421.369H592.029V426.938H588.477Z" fill="white"/>
</g>
<defs>
<clipPath id="clip0_389_3830">
<rect width="654" height="800" fill="white" transform="translate(126)"/>
</clipPath>
</defs>
</svg>
