<svg width="1920" height="716" viewBox="0 0 1920 716" fill="none" xmlns="http://www.w3.org/2000/svg">
<g clip-path="url(#clip0_385_1643)">
<path d="M0 19H1920V685H0V19Z" fill="#6BB06C"/>
<g filter="url(#filter0_d_385_1643)">
<path fill-rule="evenodd" clip-rule="evenodd" d="M1772 676C1839.93 676 1895 618.469 1895 547.5C1895 476.531 1839.93 419 1772 419C1704.07 419 1649 476.531 1649 547.5C1649 618.469 1704.07 676 1772 676Z" fill="white" fill-opacity="0.11"/>
</g>
<g filter="url(#filter1_d_385_1643)">
<path d="M85 322C152.931 322 208 264.469 208 193.5C208 122.531 152.931 65 85 65C17.069 65 -38 122.531 -38 193.5C-38 264.469 17.069 322 85 322Z" fill="white" fill-opacity="0.11"/>
</g>
<g filter="url(#filter2_d_385_1643)">
<path d="M738 555C800.408 555 851 497.469 851 426.5C851 355.531 800.408 298 738 298C675.592 298 625 355.531 625 426.5C625 497.469 675.592 555 738 555Z" fill="white" fill-opacity="0.11"/>
</g>
<g filter="url(#filter3_d_385_1643)">
<path d="M129.5 419C129.5 437.09 115.708 451.5 99 451.5C82.2919 451.5 68.5 437.09 68.5 419C68.5 400.91 82.2919 386.5 99 386.5C115.708 386.5 129.5 400.91 129.5 419Z" stroke="white" stroke-opacity="0.11" stroke-width="5"/>
</g>
<g filter="url(#filter4_d_385_1643)">
<path d="M1881.5 342.5C1901.38 342.5 1917.5 326.382 1917.5 306.5C1917.5 286.618 1901.38 270.5 1881.5 270.5C1861.62 270.5 1845.5 286.618 1845.5 306.5C1845.5 326.382 1861.62 342.5 1881.5 342.5Z" stroke="white" stroke-opacity="0.11" stroke-width="5"/>
</g>
<g filter="url(#filter5_d_385_1643)">
<path d="M1649 129.5C1649 183.348 1608.93 227 1559.5 227C1510.07 227 1470 183.348 1470 129.5C1470 75.6522 1510.07 32 1559.5 32C1608.93 32 1649 75.6522 1649 129.5Z" fill="white" fill-opacity="0.11"/>
</g>
</g>
<defs>
<filter id="filter0_d_385_1643" x="1631" y="387" width="318" height="329" filterUnits="userSpaceOnUse" color-interpolation-filters="sRGB">
<feFlood flood-opacity="0" result="BackgroundImageFix"/>
<feColorMatrix in="SourceAlpha" type="matrix" values="0 0 0 0 0 0 0 0 0 0 0 0 0 0 0 0 0 0 127 0" result="hardAlpha"/>
<feOffset dx="18" dy="4"/>
<feGaussianBlur stdDeviation="18"/>
<feComposite in2="hardAlpha" operator="out"/>
<feColorMatrix type="matrix" values="0 0 0 0 0 0 0 0 0 0 0 0 0 0 0 0 0 0 0.25 0"/>
<feBlend mode="normal" in2="BackgroundImageFix" result="effect1_dropShadow_385_1643"/>
<feBlend mode="normal" in="SourceGraphic" in2="effect1_dropShadow_385_1643" result="shape"/>
</filter>
<filter id="filter1_d_385_1643" x="-56" y="33" width="318" height="329" filterUnits="userSpaceOnUse" color-interpolation-filters="sRGB">
<feFlood flood-opacity="0" result="BackgroundImageFix"/>
<feColorMatrix in="SourceAlpha" type="matrix" values="0 0 0 0 0 0 0 0 0 0 0 0 0 0 0 0 0 0 127 0" result="hardAlpha"/>
<feOffset dx="18" dy="4"/>
<feGaussianBlur stdDeviation="18"/>
<feComposite in2="hardAlpha" operator="out"/>
<feColorMatrix type="matrix" values="0 0 0 0 0 0 0 0 0 0 0 0 0 0 0 0 0 0 0.25 0"/>
<feBlend mode="normal" in2="BackgroundImageFix" result="effect1_dropShadow_385_1643"/>
<feBlend mode="normal" in="SourceGraphic" in2="effect1_dropShadow_385_1643" result="shape"/>
</filter>
<filter id="filter2_d_385_1643" x="607" y="266" width="298" height="329" filterUnits="userSpaceOnUse" color-interpolation-filters="sRGB">
<feFlood flood-opacity="0" result="BackgroundImageFix"/>
<feColorMatrix in="SourceAlpha" type="matrix" values="0 0 0 0 0 0 0 0 0 0 0 0 0 0 0 0 0 0 127 0" result="hardAlpha"/>
<feOffset dx="18" dy="4"/>
<feGaussianBlur stdDeviation="18"/>
<feComposite in2="hardAlpha" operator="out"/>
<feColorMatrix type="matrix" values="0 0 0 0 0 0 0 0 0 0 0 0 0 0 0 0 0 0 0.25 0"/>
<feBlend mode="normal" in2="BackgroundImageFix" result="effect1_dropShadow_385_1643"/>
<feBlend mode="normal" in="SourceGraphic" in2="effect1_dropShadow_385_1643" result="shape"/>
</filter>
<filter id="filter3_d_385_1643" x="66" y="379" width="84" height="88" filterUnits="userSpaceOnUse" color-interpolation-filters="sRGB">
<feFlood flood-opacity="0" result="BackgroundImageFix"/>
<feColorMatrix in="SourceAlpha" type="matrix" values="0 0 0 0 0 0 0 0 0 0 0 0 0 0 0 0 0 0 127 0" result="hardAlpha"/>
<feOffset dx="9" dy="4"/>
<feGaussianBlur stdDeviation="4.5"/>
<feComposite in2="hardAlpha" operator="out"/>
<feColorMatrix type="matrix" values="0 0 0 0 0 0 0 0 0 0 0 0 0 0 0 0 0 0 0.25 0"/>
<feBlend mode="normal" in2="BackgroundImageFix" result="effect1_dropShadow_385_1643"/>
<feBlend mode="normal" in="SourceGraphic" in2="effect1_dropShadow_385_1643" result="shape"/>
</filter>
<filter id="filter4_d_385_1643" x="1843" y="263" width="95" height="95" filterUnits="userSpaceOnUse" color-interpolation-filters="sRGB">
<feFlood flood-opacity="0" result="BackgroundImageFix"/>
<feColorMatrix in="SourceAlpha" type="matrix" values="0 0 0 0 0 0 0 0 0 0 0 0 0 0 0 0 0 0 127 0" result="hardAlpha"/>
<feOffset dx="9" dy="4"/>
<feGaussianBlur stdDeviation="4.5"/>
<feComposite in2="hardAlpha" operator="out"/>
<feColorMatrix type="matrix" values="0 0 0 0 0 0 0 0 0 0 0 0 0 0 0 0 0 0 0.25 0"/>
<feBlend mode="normal" in2="BackgroundImageFix" result="effect1_dropShadow_385_1643"/>
<feBlend mode="normal" in="SourceGraphic" in2="effect1_dropShadow_385_1643" result="shape"/>
</filter>
<filter id="filter5_d_385_1643" x="1452" y="0" width="251" height="267" filterUnits="userSpaceOnUse" color-interpolation-filters="sRGB">
<feFlood flood-opacity="0" result="BackgroundImageFix"/>
<feColorMatrix in="SourceAlpha" type="matrix" values="0 0 0 0 0 0 0 0 0 0 0 0 0 0 0 0 0 0 127 0" result="hardAlpha"/>
<feOffset dx="18" dy="4"/>
<feGaussianBlur stdDeviation="18"/>
<feComposite in2="hardAlpha" operator="out"/>
<feColorMatrix type="matrix" values="0 0 0 0 0 0 0 0 0 0 0 0 0 0 0 0 0 0 0.25 0"/>
<feBlend mode="normal" in2="BackgroundImageFix" result="effect1_dropShadow_385_1643"/>
<feBlend mode="normal" in="SourceGraphic" in2="effect1_dropShadow_385_1643" result="shape"/>
</filter>
<clipPath id="clip0_385_1643">
<rect width="1920" height="716" fill="white"/>
</clipPath>
</defs>
</svg>
