<svg width="1920" height="1273" viewBox="0 0 1920 1273" fill="none" xmlns="http://www.w3.org/2000/svg">
<g clip-path="url(#clip0_385_1657)">
<path d="M1920 0H0V1273H1920V0Z" fill="#6BB06C"/>
<g filter="url(#filter0_d_385_1657)">
<path d="M40 1077.5C40 1148.47 95.069 1206 163 1206C230.931 1206 286 1148.47 286 1077.5C286 1006.53 230.931 949 163 949C95.069 949 40 1006.53 40 1077.5Z" fill="white" fill-opacity="0.11"/>
</g>
<g filter="url(#filter1_d_385_1657)">
<path d="M1910.11 819.5C1910.11 611.534 1748.68 442.945 1549.55 442.945C1350.42 442.945 1189 611.534 1189 819.5C1189 1027.47 1350.42 1196.06 1549.55 1196.06C1748.68 1196.06 1910.11 1027.47 1910.11 819.5Z" fill="white" fill-opacity="0.11"/>
</g>
<g filter="url(#filter2_d_385_1657)">
<path d="M415.5 247.5C415.5 353.108 332.329 438.5 230 438.5C127.671 438.5 44.5 353.108 44.5 247.5C44.5 141.892 127.671 56.5 230 56.5C332.329 56.5 415.5 141.892 415.5 247.5Z" stroke="white" stroke-opacity="0.11" stroke-width="9"/>
</g>
</g>
<defs>
<filter id="filter0_d_385_1657" x="22" y="917" width="318" height="329" filterUnits="userSpaceOnUse" color-interpolation-filters="sRGB">
<feFlood flood-opacity="0" result="BackgroundImageFix"/>
<feColorMatrix in="SourceAlpha" type="matrix" values="0 0 0 0 0 0 0 0 0 0 0 0 0 0 0 0 0 0 127 0" result="hardAlpha"/>
<feOffset dx="18" dy="4"/>
<feGaussianBlur stdDeviation="18"/>
<feComposite in2="hardAlpha" operator="out"/>
<feColorMatrix type="matrix" values="0 0 0 0 0 0 0 0 0 0 0 0 0 0 0 0 0 0 0.25 0"/>
<feBlend mode="normal" in2="BackgroundImageFix" result="effect1_dropShadow_385_1657"/>
<feBlend mode="normal" in="SourceGraphic" in2="effect1_dropShadow_385_1657" result="shape"/>
</filter>
<filter id="filter1_d_385_1657" x="1171" y="410.945" width="793.11" height="825.11" filterUnits="userSpaceOnUse" color-interpolation-filters="sRGB">
<feFlood flood-opacity="0" result="BackgroundImageFix"/>
<feColorMatrix in="SourceAlpha" type="matrix" values="0 0 0 0 0 0 0 0 0 0 0 0 0 0 0 0 0 0 127 0" result="hardAlpha"/>
<feOffset dx="18" dy="4"/>
<feGaussianBlur stdDeviation="18"/>
<feComposite in2="hardAlpha" operator="out"/>
<feColorMatrix type="matrix" values="0 0 0 0 0 0 0 0 0 0 0 0 0 0 0 0 0 0 0.25 0"/>
<feBlend mode="normal" in2="BackgroundImageFix" result="effect1_dropShadow_385_1657"/>
<feBlend mode="normal" in="SourceGraphic" in2="effect1_dropShadow_385_1657" result="shape"/>
</filter>
<filter id="filter2_d_385_1657" x="40" y="47" width="398" height="409" filterUnits="userSpaceOnUse" color-interpolation-filters="sRGB">
<feFlood flood-opacity="0" result="BackgroundImageFix"/>
<feColorMatrix in="SourceAlpha" type="matrix" values="0 0 0 0 0 0 0 0 0 0 0 0 0 0 0 0 0 0 127 0" result="hardAlpha"/>
<feOffset dx="9" dy="4"/>
<feGaussianBlur stdDeviation="4.5"/>
<feComposite in2="hardAlpha" operator="out"/>
<feColorMatrix type="matrix" values="0 0 0 0 0 0 0 0 0 0 0 0 0 0 0 0 0 0 0.25 0"/>
<feBlend mode="normal" in2="BackgroundImageFix" result="effect1_dropShadow_385_1657"/>
<feBlend mode="normal" in="SourceGraphic" in2="effect1_dropShadow_385_1657" result="shape"/>
</filter>
<clipPath id="clip0_385_1657">
<rect width="1920" height="1273" fill="white"/>
</clipPath>
</defs>
</svg>
