<svg width="1920" height="1655" viewBox="0 0 1920 1655" fill="none" xmlns="http://www.w3.org/2000/svg">
<g clip-path="url(#clip0_385_1615)">
<path d="M1994 16H0V1655H1994V16Z" fill="#6BB06C"/>
<g filter="url(#filter0_d_385_1615)">
<path d="M1457.5 1170C1670.41 1170 1843 997.406 1843 784.5C1843 571.594 1670.41 399 1457.5 399C1244.59 399 1072 571.594 1072 784.5C1072 997.406 1244.59 1170 1457.5 1170Z" fill="white" fill-opacity="0.11"/>
</g>
<g filter="url(#filter1_d_385_1615)">
<path d="M228.5 467C299.469 467 357 409.469 357 338.5C357 267.531 299.469 210 228.5 210C157.531 210 100 267.531 100 338.5C100 409.469 157.531 467 228.5 467Z" fill="white" fill-opacity="0.11"/>
</g>
<g filter="url(#filter2_d_385_1615)">
<path d="M1745.5 1529C1816.47 1529 1874 1471.47 1874 1400.5C1874 1329.53 1816.47 1272 1745.5 1272C1674.53 1272 1617 1329.53 1617 1400.5C1617 1471.47 1674.53 1529 1745.5 1529Z" fill="white" fill-opacity="0.11"/>
</g>
<g filter="url(#filter3_d_385_1615)">
<path d="M256.5 570.5C275.278 570.5 290.5 555.278 290.5 536.5C290.5 517.722 275.278 502.5 256.5 502.5C237.722 502.5 222.5 517.722 222.5 536.5C222.5 555.278 237.722 570.5 256.5 570.5Z" stroke="white" stroke-opacity="0.11" stroke-width="9"/>
</g>
<g filter="url(#filter4_d_385_1615)">
<path d="M1745.23 1111.59C1727.09 1116.45 1716.33 1135.09 1721.19 1153.23C1726.05 1171.37 1744.69 1182.13 1762.83 1177.27C1780.97 1172.41 1791.73 1153.77 1786.87 1135.63C1782.01 1117.49 1763.37 1106.73 1745.23 1111.59Z" stroke="white" stroke-opacity="0.11" stroke-width="9"/>
</g>
<g filter="url(#filter5_d_385_1615)">
<path d="M323.293 780.038C128.457 832.244 12.8326 1032.51 65.0388 1227.35C117.245 1422.18 317.512 1537.81 512.349 1485.6C707.185 1433.4 822.809 1233.13 770.603 1038.29C718.397 843.456 518.129 727.832 323.293 780.038Z" stroke="white" stroke-opacity="0.11" stroke-width="9"/>
</g>
<g filter="url(#filter6_d_385_1615)">
<path d="M1475.5 1519.5C1494.28 1519.5 1509.5 1504.28 1509.5 1485.5C1509.5 1466.72 1494.28 1451.5 1475.5 1451.5C1456.72 1451.5 1441.5 1466.72 1441.5 1485.5C1441.5 1504.28 1456.72 1519.5 1475.5 1519.5Z" stroke="white" stroke-opacity="0.11" stroke-width="9"/>
</g>
<g filter="url(#filter7_d_385_1615)">
<path d="M1745.5 289C1816.47 289 1874 231.469 1874 160.5C1874 89.5314 1816.47 32 1745.5 32C1674.53 32 1617 89.5314 1617 160.5C1617 231.469 1674.53 289 1745.5 289Z" fill="white" fill-opacity="0.11"/>
</g>
</g>
<defs>
<filter id="filter0_d_385_1615" x="1054" y="367" width="843" height="843" filterUnits="userSpaceOnUse" color-interpolation-filters="sRGB">
<feFlood flood-opacity="0" result="BackgroundImageFix"/>
<feColorMatrix in="SourceAlpha" type="matrix" values="0 0 0 0 0 0 0 0 0 0 0 0 0 0 0 0 0 0 127 0" result="hardAlpha"/>
<feOffset dx="18" dy="4"/>
<feGaussianBlur stdDeviation="18"/>
<feComposite in2="hardAlpha" operator="out"/>
<feColorMatrix type="matrix" values="0 0 0 0 0 0 0 0 0 0 0 0 0 0 0 0 0 0 0.25 0"/>
<feBlend mode="normal" in2="BackgroundImageFix" result="effect1_dropShadow_385_1615"/>
<feBlend mode="normal" in="SourceGraphic" in2="effect1_dropShadow_385_1615" result="shape"/>
</filter>
<filter id="filter1_d_385_1615" x="82" y="178" width="329" height="329" filterUnits="userSpaceOnUse" color-interpolation-filters="sRGB">
<feFlood flood-opacity="0" result="BackgroundImageFix"/>
<feColorMatrix in="SourceAlpha" type="matrix" values="0 0 0 0 0 0 0 0 0 0 0 0 0 0 0 0 0 0 127 0" result="hardAlpha"/>
<feOffset dx="18" dy="4"/>
<feGaussianBlur stdDeviation="18"/>
<feComposite in2="hardAlpha" operator="out"/>
<feColorMatrix type="matrix" values="0 0 0 0 0 0 0 0 0 0 0 0 0 0 0 0 0 0 0.25 0"/>
<feBlend mode="normal" in2="BackgroundImageFix" result="effect1_dropShadow_385_1615"/>
<feBlend mode="normal" in="SourceGraphic" in2="effect1_dropShadow_385_1615" result="shape"/>
</filter>
<filter id="filter2_d_385_1615" x="1599" y="1240" width="329" height="329" filterUnits="userSpaceOnUse" color-interpolation-filters="sRGB">
<feFlood flood-opacity="0" result="BackgroundImageFix"/>
<feColorMatrix in="SourceAlpha" type="matrix" values="0 0 0 0 0 0 0 0 0 0 0 0 0 0 0 0 0 0 127 0" result="hardAlpha"/>
<feOffset dx="18" dy="4"/>
<feGaussianBlur stdDeviation="18"/>
<feComposite in2="hardAlpha" operator="out"/>
<feColorMatrix type="matrix" values="0 0 0 0 0 0 0 0 0 0 0 0 0 0 0 0 0 0 0.25 0"/>
<feBlend mode="normal" in2="BackgroundImageFix" result="effect1_dropShadow_385_1615"/>
<feBlend mode="normal" in="SourceGraphic" in2="effect1_dropShadow_385_1615" result="shape"/>
</filter>
<filter id="filter3_d_385_1615" x="218" y="493" width="95" height="95" filterUnits="userSpaceOnUse" color-interpolation-filters="sRGB">
<feFlood flood-opacity="0" result="BackgroundImageFix"/>
<feColorMatrix in="SourceAlpha" type="matrix" values="0 0 0 0 0 0 0 0 0 0 0 0 0 0 0 0 0 0 127 0" result="hardAlpha"/>
<feOffset dx="9" dy="4"/>
<feGaussianBlur stdDeviation="4.5"/>
<feComposite in2="hardAlpha" operator="out"/>
<feColorMatrix type="matrix" values="0 0 0 0 0 0 0 0 0 0 0 0 0 0 0 0 0 0 0.25 0"/>
<feBlend mode="normal" in2="BackgroundImageFix" result="effect1_dropShadow_385_1615"/>
<feBlend mode="normal" in="SourceGraphic" in2="effect1_dropShadow_385_1615" result="shape"/>
</filter>
<filter id="filter4_d_385_1615" x="1715.52" y="1100.92" width="95.0195" height="95.0193" filterUnits="userSpaceOnUse" color-interpolation-filters="sRGB">
<feFlood flood-opacity="0" result="BackgroundImageFix"/>
<feColorMatrix in="SourceAlpha" type="matrix" values="0 0 0 0 0 0 0 0 0 0 0 0 0 0 0 0 0 0 127 0" result="hardAlpha"/>
<feOffset dx="9" dy="4"/>
<feGaussianBlur stdDeviation="4.5"/>
<feComposite in2="hardAlpha" operator="out"/>
<feColorMatrix type="matrix" values="0 0 0 0 0 0 0 0 0 0 0 0 0 0 0 0 0 0 0.25 0"/>
<feBlend mode="normal" in2="BackgroundImageFix" result="effect1_dropShadow_385_1615"/>
<feBlend mode="normal" in="SourceGraphic" in2="effect1_dropShadow_385_1615" result="shape"/>
</filter>
<filter id="filter5_d_385_1615" x="48.002" y="758.001" width="757.638" height="757.637" filterUnits="userSpaceOnUse" color-interpolation-filters="sRGB">
<feFlood flood-opacity="0" result="BackgroundImageFix"/>
<feColorMatrix in="SourceAlpha" type="matrix" values="0 0 0 0 0 0 0 0 0 0 0 0 0 0 0 0 0 0 127 0" result="hardAlpha"/>
<feOffset dx="9" dy="4"/>
<feGaussianBlur stdDeviation="4.5"/>
<feComposite in2="hardAlpha" operator="out"/>
<feColorMatrix type="matrix" values="0 0 0 0 0 0 0 0 0 0 0 0 0 0 0 0 0 0 0.25 0"/>
<feBlend mode="normal" in2="BackgroundImageFix" result="effect1_dropShadow_385_1615"/>
<feBlend mode="normal" in="SourceGraphic" in2="effect1_dropShadow_385_1615" result="shape"/>
</filter>
<filter id="filter6_d_385_1615" x="1437" y="1442" width="95" height="95" filterUnits="userSpaceOnUse" color-interpolation-filters="sRGB">
<feFlood flood-opacity="0" result="BackgroundImageFix"/>
<feColorMatrix in="SourceAlpha" type="matrix" values="0 0 0 0 0 0 0 0 0 0 0 0 0 0 0 0 0 0 127 0" result="hardAlpha"/>
<feOffset dx="9" dy="4"/>
<feGaussianBlur stdDeviation="4.5"/>
<feComposite in2="hardAlpha" operator="out"/>
<feColorMatrix type="matrix" values="0 0 0 0 0 0 0 0 0 0 0 0 0 0 0 0 0 0 0.25 0"/>
<feBlend mode="normal" in2="BackgroundImageFix" result="effect1_dropShadow_385_1615"/>
<feBlend mode="normal" in="SourceGraphic" in2="effect1_dropShadow_385_1615" result="shape"/>
</filter>
<filter id="filter7_d_385_1615" x="1599" y="0" width="329" height="329" filterUnits="userSpaceOnUse" color-interpolation-filters="sRGB">
<feFlood flood-opacity="0" result="BackgroundImageFix"/>
<feColorMatrix in="SourceAlpha" type="matrix" values="0 0 0 0 0 0 0 0 0 0 0 0 0 0 0 0 0 0 127 0" result="hardAlpha"/>
<feOffset dx="18" dy="4"/>
<feGaussianBlur stdDeviation="18"/>
<feComposite in2="hardAlpha" operator="out"/>
<feColorMatrix type="matrix" values="0 0 0 0 0 0 0 0 0 0 0 0 0 0 0 0 0 0 0.25 0"/>
<feBlend mode="normal" in2="BackgroundImageFix" result="effect1_dropShadow_385_1615"/>
<feBlend mode="normal" in="SourceGraphic" in2="effect1_dropShadow_385_1615" result="shape"/>
</filter>
<clipPath id="clip0_385_1615">
<rect width="1920" height="1655" fill="white"/>
</clipPath>
</defs>
</svg>
