<svg width="1920" height="562" viewBox="0 0 1920 562" fill="none" xmlns="http://www.w3.org/2000/svg">
<g clip-path="url(#clip0_385_1665)">
<path d="M1994 11H0V562H1994V11Z" fill="#6BB06C"/>
<g filter="url(#filter0_d_385_1665)">
<path d="M1199 256C1260.86 256 1311 205.856 1311 144C1311 82.1441 1260.86 32 1199 32C1137.14 32 1087 82.1441 1087 144C1087 205.856 1137.14 256 1199 256Z" fill="white" fill-opacity="0.11"/>
</g>
<g filter="url(#filter1_d_385_1665)">
<path d="M1828.5 190C1871.3 190 1906 155.302 1906 112.5C1906 69.6979 1871.3 35 1828.5 35C1785.7 35 1751 69.6979 1751 112.5C1751 155.302 1785.7 190 1828.5 190Z" fill="white" fill-opacity="0.11"/>
</g>
<g filter="url(#filter2_d_385_1665)">
<path d="M167.5 295C238.469 295 296 237.469 296 166.5C296 95.5314 238.469 38 167.5 38C96.5314 38 39 95.5314 39 166.5C39 237.469 96.5314 295 167.5 295Z" fill="white" fill-opacity="0.11"/>
</g>
<g filter="url(#filter3_d_385_1665)">
<path d="M413.5 134.5C432.278 134.5 447.5 119.278 447.5 100.5C447.5 81.7223 432.278 66.5 413.5 66.5C394.722 66.5 379.5 81.7223 379.5 100.5C379.5 119.278 394.722 134.5 413.5 134.5Z" stroke="white" stroke-opacity="0.11" stroke-width="9"/>
</g>
<g filter="url(#filter4_d_385_1665)">
<path d="M1856.5 290.5C1875.28 290.5 1890.5 275.278 1890.5 256.5C1890.5 237.722 1875.28 222.5 1856.5 222.5C1837.72 222.5 1822.5 237.722 1822.5 256.5C1822.5 275.278 1837.72 290.5 1856.5 290.5Z" stroke="white" stroke-opacity="0.11" stroke-width="9"/>
</g>
</g>
<defs>
<filter id="filter0_d_385_1665" x="1069" y="0" width="296" height="296" filterUnits="userSpaceOnUse" color-interpolation-filters="sRGB">
<feFlood flood-opacity="0" result="BackgroundImageFix"/>
<feColorMatrix in="SourceAlpha" type="matrix" values="0 0 0 0 0 0 0 0 0 0 0 0 0 0 0 0 0 0 127 0" result="hardAlpha"/>
<feOffset dx="18" dy="4"/>
<feGaussianBlur stdDeviation="18"/>
<feComposite in2="hardAlpha" operator="out"/>
<feColorMatrix type="matrix" values="0 0 0 0 0 0 0 0 0 0 0 0 0 0 0 0 0 0 0.25 0"/>
<feBlend mode="normal" in2="BackgroundImageFix" result="effect1_dropShadow_385_1665"/>
<feBlend mode="normal" in="SourceGraphic" in2="effect1_dropShadow_385_1665" result="shape"/>
</filter>
<filter id="filter1_d_385_1665" x="1733" y="3" width="227" height="227" filterUnits="userSpaceOnUse" color-interpolation-filters="sRGB">
<feFlood flood-opacity="0" result="BackgroundImageFix"/>
<feColorMatrix in="SourceAlpha" type="matrix" values="0 0 0 0 0 0 0 0 0 0 0 0 0 0 0 0 0 0 127 0" result="hardAlpha"/>
<feOffset dx="18" dy="4"/>
<feGaussianBlur stdDeviation="18"/>
<feComposite in2="hardAlpha" operator="out"/>
<feColorMatrix type="matrix" values="0 0 0 0 0 0 0 0 0 0 0 0 0 0 0 0 0 0 0.25 0"/>
<feBlend mode="normal" in2="BackgroundImageFix" result="effect1_dropShadow_385_1665"/>
<feBlend mode="normal" in="SourceGraphic" in2="effect1_dropShadow_385_1665" result="shape"/>
</filter>
<filter id="filter2_d_385_1665" x="21" y="6" width="329" height="329" filterUnits="userSpaceOnUse" color-interpolation-filters="sRGB">
<feFlood flood-opacity="0" result="BackgroundImageFix"/>
<feColorMatrix in="SourceAlpha" type="matrix" values="0 0 0 0 0 0 0 0 0 0 0 0 0 0 0 0 0 0 127 0" result="hardAlpha"/>
<feOffset dx="18" dy="4"/>
<feGaussianBlur stdDeviation="18"/>
<feComposite in2="hardAlpha" operator="out"/>
<feColorMatrix type="matrix" values="0 0 0 0 0 0 0 0 0 0 0 0 0 0 0 0 0 0 0.25 0"/>
<feBlend mode="normal" in2="BackgroundImageFix" result="effect1_dropShadow_385_1665"/>
<feBlend mode="normal" in="SourceGraphic" in2="effect1_dropShadow_385_1665" result="shape"/>
</filter>
<filter id="filter3_d_385_1665" x="375" y="57" width="95" height="95" filterUnits="userSpaceOnUse" color-interpolation-filters="sRGB">
<feFlood flood-opacity="0" result="BackgroundImageFix"/>
<feColorMatrix in="SourceAlpha" type="matrix" values="0 0 0 0 0 0 0 0 0 0 0 0 0 0 0 0 0 0 127 0" result="hardAlpha"/>
<feOffset dx="9" dy="4"/>
<feGaussianBlur stdDeviation="4.5"/>
<feComposite in2="hardAlpha" operator="out"/>
<feColorMatrix type="matrix" values="0 0 0 0 0 0 0 0 0 0 0 0 0 0 0 0 0 0 0.25 0"/>
<feBlend mode="normal" in2="BackgroundImageFix" result="effect1_dropShadow_385_1665"/>
<feBlend mode="normal" in="SourceGraphic" in2="effect1_dropShadow_385_1665" result="shape"/>
</filter>
<filter id="filter4_d_385_1665" x="1818" y="213" width="95" height="95" filterUnits="userSpaceOnUse" color-interpolation-filters="sRGB">
<feFlood flood-opacity="0" result="BackgroundImageFix"/>
<feColorMatrix in="SourceAlpha" type="matrix" values="0 0 0 0 0 0 0 0 0 0 0 0 0 0 0 0 0 0 127 0" result="hardAlpha"/>
<feOffset dx="9" dy="4"/>
<feGaussianBlur stdDeviation="4.5"/>
<feComposite in2="hardAlpha" operator="out"/>
<feColorMatrix type="matrix" values="0 0 0 0 0 0 0 0 0 0 0 0 0 0 0 0 0 0 0.25 0"/>
<feBlend mode="normal" in2="BackgroundImageFix" result="effect1_dropShadow_385_1665"/>
<feBlend mode="normal" in="SourceGraphic" in2="effect1_dropShadow_385_1665" result="shape"/>
</filter>
<clipPath id="clip0_385_1665">
<rect width="1920" height="562" fill="white"/>
</clipPath>
</defs>
</svg>
