<svg width="183" height="59" viewBox="0 0 183 59" fill="none" xmlns="http://www.w3.org/2000/svg">
<path fill-rule="evenodd" clip-rule="evenodd" d="M42.459 48.9425L56.2652 49.0224C56.0721 47.1578 37.2458 1.73878 36.0011 0.114034L23.5623 0.110596L42.459 48.9433V48.9425Z" fill="#2C422C"/>
<path fill-rule="evenodd" clip-rule="evenodd" d="M10.838 30.1659C9.61475 32.2875 5.70726 43.3788 0.237624 57.9285L0 58.5268H0.0120099L0 58.5586L11.194 58.532C42.6925 58.5423 133.104 58.5586 182.999 58.5586V50.9343H16.4612L24.6751 30.208L10.838 30.165V30.1659Z" fill="#2C422C"/>
<path fill-rule="evenodd" clip-rule="evenodd" d="M57.9968 12.2389C68.0577 12.0507 81.1124 10.6572 84.2521 19.5924C86.0132 24.6034 84.5652 30.4327 81.893 33.261C78.8657 36.4658 73.9725 36.8157 68.5012 36.899L73.2236 48.7829C81.3285 48.6488 88.7369 45.4569 93.8102 39.5218C101.771 30.2109 101.941 7.50654 81.7995 1.60415C76.2063 -0.0352182 59.2313 -0.375642 53.1732 0.389452L57.996 12.2381L57.9968 12.2389Z" fill="white"/>
<path d="M107.223 33.6118H110.434V39.0148H118.187V33.6118H121.376V46.8119H118.187V41.1794H110.434V46.8119H107.223V33.6118ZM130.768 35.6707C129.738 35.6707 128.944 35.7292 128.387 35.8495C127.829 35.9664 127.457 36.196 127.268 36.533C127.054 36.9146 126.914 37.5009 126.847 38.2961C126.876 38.3984 126.891 38.5334 126.891 38.701V41.831C126.891 42.9133 127.047 43.6586 127.356 44.0661C127.615 44.3713 127.988 44.5647 128.472 44.6378C128.951 44.7143 129.697 44.7642 130.701 44.7874C131.676 44.7702 132.41 44.7109 132.913 44.6086C133.411 44.5088 133.795 44.3266 134.072 44.0661C134.234 43.8753 134.363 43.5993 134.466 43.2331C134.569 42.8695 134.621 42.4766 134.621 42.0597V38.5574V38.0821C134.621 37.2456 134.437 36.6507 134.072 36.2897C133.706 35.9819 133.131 35.7876 132.34 35.706C131.853 35.6828 131.329 35.6707 130.768 35.6707ZM130.723 33.5061C131.587 33.5061 132.395 33.5353 133.142 33.5912C133.891 33.6471 134.603 33.776 135.283 33.9781C135.958 34.1801 136.461 34.4827 136.789 34.8816C136.963 35.0286 137.18 35.3655 137.443 35.8874C137.705 36.4092 137.834 37.1777 137.834 38.1869V42.4465C137.834 43.2417 137.738 43.8572 137.55 44.2913C137.362 44.7281 137.092 45.145 136.749 45.5413C136.365 45.9608 135.826 46.272 135.125 46.474C134.428 46.676 133.708 46.8024 132.969 46.8497C132.231 46.8935 131.341 46.9167 130.304 46.9167C129.038 46.9167 127.971 46.8437 127.103 46.6967C126.236 46.5531 125.531 46.2419 124.988 45.77C124.146 45.1037 123.725 43.8658 123.725 42.0588V38.4508C123.725 37.6849 123.788 37.0049 123.913 36.4092C124.035 35.8134 124.29 35.2916 124.677 34.8455C125.039 34.444 125.552 34.144 126.217 33.948C126.885 33.7485 127.576 33.6256 128.288 33.5783C129.001 33.5285 129.812 33.5052 130.724 33.5052L130.723 33.5061ZM146.83 44.753C147.095 44.753 147.288 44.765 147.409 44.7882C148.188 44.7676 148.783 44.7263 149.189 44.6679C149.599 44.6094 149.942 44.4856 150.222 44.2922C150.462 44.134 150.613 43.9458 150.676 43.7377C150.739 43.5263 150.772 43.1893 150.772 42.7285V33.6118H153.962V43.0629C153.962 44.453 153.474 45.4596 152.5 46.0872C151.913 46.4542 151.126 46.6855 150.144 46.7766C149.159 46.8703 147.966 46.9176 146.564 46.9176C145.541 46.9176 144.663 46.8798 143.932 46.8007C143.204 46.7242 142.536 46.5574 141.935 46.2995C141.318 46.0124 140.861 45.5722 140.565 44.9885C140.265 44.4022 140.118 43.736 140.118 42.9907V33.6127H143.329V43.2022C143.329 43.5194 143.374 43.7566 143.462 43.9234C143.551 44.0876 143.721 44.2346 143.972 44.3661C144.286 44.5364 144.655 44.6421 145.076 44.6859C145.493 44.7298 146.081 44.753 146.83 44.753ZM162.441 33.5061C163.918 33.5061 164.97 33.5293 165.605 33.5766C166.628 33.6823 167.403 33.911 167.931 34.2626C168.485 34.6237 168.843 35.0578 169.001 35.5676C169.16 36.0748 169.237 36.7204 169.237 37.5009H166.026V36.9731C166.026 36.4805 165.918 36.1401 165.697 35.9527C165.439 35.718 164.774 35.6011 163.703 35.6011H162.397C161.131 35.6011 160.311 35.718 159.942 35.9527C159.743 36.0696 159.602 36.2252 159.514 36.4221C159.429 36.6155 159.384 36.906 159.384 37.2903C159.413 37.727 159.461 38.0442 159.528 38.2411C159.594 38.4345 159.761 38.5875 160.027 38.6984C160.245 38.7921 160.51 38.8626 160.831 38.9099C161.149 38.9598 161.525 38.995 161.961 39.0217C162.393 39.0449 162.806 39.0655 163.194 39.0861C164.511 39.1532 165.597 39.2357 166.45 39.3354C167.306 39.4352 167.963 39.6226 168.418 39.8959C168.695 40.0722 168.913 40.2828 169.072 40.5295C169.23 40.7762 169.345 41.0341 169.415 41.304C169.485 41.574 169.526 41.8052 169.54 42.0055C169.555 42.2024 169.574 42.5308 169.596 42.9915C169.596 43.7248 169.466 44.3765 169.205 44.9421C168.942 45.5112 168.562 45.9393 168.064 46.2325C167.288 46.6898 165.698 46.9185 163.302 46.9185H162.106C161.043 46.9185 160.127 46.8712 159.356 46.7775C158.588 46.6864 157.931 46.4551 157.392 46.088C156.993 45.8181 156.706 45.5069 156.525 45.1579C156.34 44.8089 156.23 44.4478 156.189 44.0782C156.148 43.7059 156.126 43.2219 156.126 42.6228H159.301C159.301 42.7749 159.286 42.8987 159.256 42.9924C159.282 43.3999 159.327 43.7085 159.389 43.9191C159.452 44.1306 159.577 44.3008 159.762 44.4358C159.977 44.5914 160.261 44.6971 160.612 44.7495C160.966 44.802 161.464 44.8372 162.11 44.8579C162.42 44.8579 162.649 44.8699 162.797 44.8957C163.605 44.8665 164.218 44.8338 164.624 44.7934C165.034 44.7521 165.377 44.6705 165.65 44.5441C166.14 44.3034 166.384 43.7523 166.384 42.8893C166.384 42.2823 166.229 41.8448 165.919 41.5843C165.805 41.4992 165.657 41.4321 165.483 41.3788C165.306 41.3264 165.129 41.2877 164.948 41.2705C164.771 41.2499 164.546 41.2327 164.272 41.2207C163.995 41.206 163.689 41.194 163.346 41.1794C162.755 41.1588 162.198 41.1381 161.674 41.1175C161.153 41.0969 160.655 41.0651 160.182 41.0204C159.709 40.9731 159.241 40.8914 158.775 40.7771C158.31 40.6602 157.922 40.5071 157.612 40.3197C156.74 39.8091 156.275 38.8471 156.216 37.4304C156.216 35.9553 156.637 34.922 157.479 34.3331C158.35 33.7812 160.003 33.5061 162.441 33.5061H162.441ZM171.545 46.8119V33.6118H182.956V35.7765H174.734V39.0853H182.535V41.1441H174.734V44.6464H183V46.811H171.545V46.8119Z" fill="white"/>
</svg>
