<svg width="183" height="59" viewBox="0 0 183 59" fill="none" xmlns="http://www.w3.org/2000/svg">
<path fill-rule="evenodd" clip-rule="evenodd" d="M42.459 48.9425L56.2652 49.0224C56.0721 47.1578 37.2458 1.73878 36.0011 0.114034L23.5623 0.110596L42.459 48.9433V48.9425Z" fill="#404040"/>
<path fill-rule="evenodd" clip-rule="evenodd" d="M10.838 30.1659C9.61475 32.2875 5.70726 43.3788 0.237624 57.9285L0 58.5268H0.0120099L0 58.5586L11.194 58.532C42.6925 58.5423 133.104 58.5586 182.999 58.5586V50.9343H16.4612L24.6751 30.208L10.838 30.165V30.1659Z" fill="#404040"/>
<path fill-rule="evenodd" clip-rule="evenodd" d="M57.9968 12.2389C68.0577 12.0507 81.1124 10.6572 84.2521 19.5924C86.0132 24.6034 84.5652 30.4327 81.893 33.261C78.8657 36.4658 73.9725 36.8157 68.5012 36.899L73.2236 48.7829C81.3285 48.6488 88.7369 45.4569 93.8102 39.5218C101.771 30.2109 101.941 7.50654 81.7995 1.60415C76.2063 -0.0352182 59.2313 -0.375642 53.1732 0.389452L57.996 12.2381L57.9968 12.2389Z" fill="#3F7440"/>
<path d="M107.223 33.612H110.434V39.0149H118.187V33.612H121.376V46.812H118.187V41.1795H110.434V46.812H107.223V33.612ZM130.768 35.6708C129.738 35.6708 128.944 35.7293 128.387 35.8497C127.829 35.9666 127.457 36.1961 127.268 36.5331C127.054 36.9148 126.914 37.501 126.847 38.2962C126.876 38.3985 126.891 38.5335 126.891 38.7011V41.8311C126.891 42.9134 127.047 43.6588 127.356 44.0662C127.615 44.3714 127.988 44.5648 128.472 44.6379C128.951 44.7144 129.697 44.7643 130.701 44.7875C131.676 44.7703 132.41 44.711 132.913 44.6087C133.411 44.509 133.795 44.3267 134.072 44.0662C134.234 43.8754 134.363 43.5994 134.466 43.2332C134.569 42.8696 134.621 42.4767 134.621 42.0598V38.5576V38.0822C134.621 37.2457 134.437 36.6509 134.072 36.2898C133.706 35.982 133.131 35.7878 132.34 35.7061C131.853 35.6829 131.329 35.6708 130.768 35.6708ZM130.723 33.5062C131.587 33.5062 132.395 33.5355 133.142 33.5913C133.891 33.6472 134.603 33.7762 135.283 33.9782C135.958 34.1802 136.461 34.4828 136.789 34.8817C136.963 35.0287 137.18 35.3657 137.443 35.8875C137.705 36.4093 137.834 37.1778 137.834 38.1871V42.4467C137.834 43.2418 137.738 43.8573 137.55 44.2915C137.362 44.7282 137.092 45.1451 136.749 45.5414C136.365 45.9609 135.826 46.2721 135.125 46.4741C134.428 46.6762 133.708 46.8025 132.969 46.8498C132.231 46.8937 131.341 46.9169 130.304 46.9169C129.038 46.9169 127.971 46.8438 127.103 46.6968C126.236 46.5532 125.531 46.242 124.988 45.7701C124.146 45.1038 123.725 43.8659 123.725 42.0589V38.451C123.725 37.685 123.788 37.005 123.913 36.4093C124.035 35.8135 124.29 35.2917 124.677 34.8456C125.039 34.4441 125.552 34.1441 126.217 33.9481C126.885 33.7487 127.576 33.6257 128.288 33.5784C129.001 33.5286 129.812 33.5054 130.724 33.5054L130.723 33.5062ZM146.83 44.7531C147.095 44.7531 147.288 44.7651 147.409 44.7884C148.188 44.7677 148.783 44.7265 149.189 44.668C149.599 44.6095 149.942 44.4858 150.222 44.2923C150.462 44.1342 150.613 43.9459 150.676 43.7379C150.739 43.5264 150.772 43.1894 150.772 42.7286V33.612H153.962V43.063C153.962 44.4531 153.474 45.4597 152.5 46.0873C151.913 46.4544 151.126 46.6856 150.144 46.7767C149.159 46.8704 147.966 46.9177 146.564 46.9177C145.541 46.9177 144.663 46.8799 143.932 46.8008C143.204 46.7243 142.536 46.5575 141.935 46.2996C141.318 46.0125 140.861 45.5724 140.565 44.9887C140.265 44.4024 140.118 43.7361 140.118 42.9908V33.6128H143.329V43.2023C143.329 43.5195 143.374 43.7568 143.462 43.9235C143.551 44.0877 143.721 44.2347 143.972 44.3663C144.286 44.5365 144.655 44.6422 145.076 44.6861C145.493 44.7299 146.081 44.7531 146.83 44.7531ZM162.441 33.5062C163.918 33.5062 164.97 33.5294 165.605 33.5767C166.628 33.6825 167.403 33.9111 167.931 34.2627C168.485 34.6238 168.843 35.0579 169.001 35.5677C169.16 36.0749 169.237 36.7205 169.237 37.501H166.026V36.9732C166.026 36.4806 165.918 36.1402 165.697 35.9528C165.439 35.7181 164.774 35.6012 163.703 35.6012H162.397C161.131 35.6012 160.311 35.7181 159.942 35.9528C159.743 36.0697 159.602 36.2253 159.514 36.4222C159.429 36.6156 159.384 36.9062 159.384 37.2904C159.413 37.7271 159.461 38.0444 159.528 38.2412C159.594 38.4346 159.761 38.5877 160.027 38.6986C160.245 38.7923 160.51 38.8627 160.831 38.91C161.149 38.9599 161.525 38.9951 161.961 39.0218C162.393 39.045 162.806 39.0656 163.194 39.0863C164.511 39.1533 165.597 39.2358 166.45 39.3356C167.306 39.4353 167.963 39.6227 168.418 39.8961C168.695 40.0723 168.913 40.2829 169.072 40.5296C169.23 40.7763 169.345 41.0342 169.415 41.3042C169.485 41.5741 169.526 41.8053 169.54 42.0056C169.555 42.2025 169.574 42.5309 169.596 42.9917C169.596 43.725 169.466 44.3766 169.205 44.9422C168.942 45.5113 168.562 45.9394 168.064 46.2326C167.288 46.6899 165.698 46.9186 163.302 46.9186H162.106C161.043 46.9186 160.127 46.8713 159.356 46.7776C158.588 46.6865 157.931 46.4552 157.392 46.0882C156.993 45.8182 156.706 45.507 156.525 45.158C156.34 44.809 156.23 44.4479 156.189 44.0783C156.148 43.706 156.126 43.2221 156.126 42.6229H159.301C159.301 42.775 159.286 42.8988 159.256 42.9925C159.282 43.4 159.327 43.7086 159.389 43.9192C159.452 44.1307 159.577 44.3009 159.762 44.4359C159.977 44.5915 160.261 44.6972 160.612 44.7497C160.966 44.8021 161.464 44.8374 162.11 44.858C162.42 44.858 162.649 44.87 162.797 44.8958C163.605 44.8666 164.218 44.8339 164.624 44.7935C165.034 44.7522 165.377 44.6706 165.65 44.5442C166.14 44.3035 166.384 43.7525 166.384 42.8894C166.384 42.2825 166.229 41.8449 165.919 41.5844C165.805 41.4993 165.657 41.4323 165.483 41.379C165.306 41.3265 165.129 41.2878 164.948 41.2706C164.771 41.25 164.546 41.2328 164.272 41.2208C163.995 41.2062 163.689 41.1941 163.346 41.1795C162.755 41.1589 162.198 41.1383 161.674 41.1176C161.153 41.097 160.655 41.0652 160.182 41.0205C159.709 40.9732 159.241 40.8915 158.775 40.7772C158.31 40.6603 157.922 40.5073 157.612 40.3199C156.74 39.8092 156.275 38.8473 156.216 37.4306C156.216 35.9554 156.637 34.9221 157.479 34.3332C158.35 33.7813 160.003 33.5062 162.441 33.5062H162.441ZM171.545 46.812V33.612H182.956V35.7766H174.734V39.0854H182.535V41.1443H174.734V44.6465H183V46.8111H171.545V46.812Z" fill="#3F7440"/>
</svg>
